<svg width="32" height="32" viewBox="0 0 32 32" fill="none" xmlns="http://www.w3.org/2000/svg">
<g id="Group">
<g id="Group_2">
<path id="Vector" d="M0 16C0 7.16445 7.16406 0 16.0034 0C24.8382 0 32 7.16445 32 16C32 7.39645 25.0266 0.422655 16.4249 0.422655C7.82087 0.422655 0.846275 7.39645 0.846275 16C0.846275 24.6035 7.82087 31.5773 16.4249 31.5773C25.0266 31.5773 32 24.6024 32 16C32 24.8367 24.8382 32 16.0034 32C7.16406 32.0011 0 24.8367 0 16Z" fill="url(#paint0_linear_1931_1327)"/>
<g id="Group_3">
<path id="Vector_2" d="M15.4019 22.6375C14.9598 22.0069 14.2743 21.4591 13.42 21.0514C13.1524 20.9227 12.8711 20.855 12.5817 20.855C12.1615 20.855 11.7435 20.9962 11.3726 21.2604C10.6469 21.7784 10.2105 22.7029 10.3047 23.5069C10.3839 24.1788 10.8134 24.7048 11.5035 24.9816C11.825 25.1125 12.1511 25.178 12.4749 25.178C13.7254 25.178 14.5877 24.188 14.9759 23.6218C15.0138 23.7171 15.0252 23.7768 15.0252 23.794C15.0287 24.0283 15.217 24.219 15.449 24.219C15.6855 24.219 15.8773 24.0272 15.8773 23.7917C15.8773 23.6149 15.7774 23.1727 15.4019 22.6375ZM11.802 24.2994C11.3646 24.1225 11.1096 23.8182 11.0614 23.4127C10.9948 22.8798 11.3129 22.2309 11.8135 21.8737C11.9754 21.7577 12.251 21.6061 12.5898 21.6061C12.7517 21.6061 12.9262 21.6406 13.1111 21.729C13.815 22.0701 14.2835 22.4675 14.5866 22.8201C14.3305 23.3117 13.3534 24.923 11.802 24.2994Z" fill="black"/>
<g id="Group_4">
<path id="Vector_3" d="M11.8022 24.2997C11.3647 24.1228 11.1097 23.8185 11.0615 23.4131C10.9949 22.8802 11.313 22.2312 11.8136 21.8741C11.9755 21.758 12.2511 21.6064 12.5899 21.6064C12.7518 21.6064 12.9263 21.6409 13.1112 21.7293C13.8151 22.0704 14.2836 22.4678 14.5867 22.8204C14.3306 23.312 13.3535 24.9234 11.8022 24.2997Z" fill="#EA2227"/>
</g>
<path id="Vector_4" d="M18.6305 8.63428L13.2646 13.8359C15.7702 12.6104 17.844 12.0442 18.6305 11.8547V8.63428Z" fill="white"/>
<path id="Vector_5" d="M18.6314 12.7734C17.4291 13.0824 14.501 13.9667 11.3169 15.9342L18.6314 22.4325V12.7734Z" fill="#F69220"/>
<path id="Vector_6" d="M22.0968 6.82781H21.6031H20.0943H15.3726H12.4548H9.343C9.1076 6.82781 8.91699 7.01846 8.91699 7.25506C8.91699 7.48821 9.1076 7.68116 9.343 7.68116H12.4548H15.3726H18.3948L10.2995 15.5267C10.2605 15.5669 10.2283 15.6105 10.2042 15.6645L10.1985 15.6783L10.1927 15.6978C10.1881 15.7104 10.1801 15.7323 10.1766 15.7575C10.1766 15.761 10.1755 15.7656 10.1755 15.7725L10.1743 15.7828C10.1709 15.7943 10.1698 15.8115 10.1698 15.8356V15.8391C10.1698 15.854 10.1709 15.8678 10.1721 15.8758C10.1743 15.885 10.1755 15.8942 10.1766 15.9034L10.1778 15.9126C10.1801 15.9333 10.187 15.9482 10.1916 15.9597L10.1927 15.9608C10.195 15.9746 10.1985 15.9861 10.2042 15.9987C10.2099 16.0148 10.2168 16.0251 10.2226 16.0355C10.2272 16.0424 10.2295 16.0504 10.2375 16.063C10.2421 16.0699 10.2478 16.078 10.2536 16.0814C10.2559 16.0895 10.2582 16.0929 10.2662 16.1009L10.2639 16.0963L10.2731 16.109L10.2846 16.1216C10.288 16.1274 10.2915 16.1308 10.2949 16.132C10.2995 16.1411 10.3075 16.148 10.3156 16.1561L18.6348 23.5812V24.7539C18.6348 24.9893 18.8231 25.1788 19.0597 25.1788C19.2962 25.1788 19.4868 24.9893 19.4868 24.7539V7.68001H20.0943H22.0968H22.5366C22.5711 7.56631 22.6113 7.45605 22.6618 7.35613C22.7697 7.14825 22.9179 6.97826 23.0821 6.82666H22.0968V6.82781ZM18.6337 22.4293L11.3192 15.9298C14.5045 13.9647 17.4326 13.078 18.6337 12.7714V22.4293ZM18.6337 11.8537C17.8471 12.0444 15.7733 12.6094 13.2678 13.8349L18.6337 8.63328V11.8537Z" fill="black"/>
</g>
</g>
</g>
<defs>
<linearGradient id="paint0_linear_1931_1327" x1="20.2663" y1="23.0369" x2="12.7055" y2="10.5708" gradientUnits="userSpaceOnUse">
<stop stop-color="#FFF100"/>
<stop offset="0.3" stop-color="#88C440"/>
<stop offset="0.7" stop-color="#0096D6"/>
<stop offset="1" stop-color="#F6921E"/>
</linearGradient>
</defs>
</svg>
